<?xml version="1.0" standalone="no"?>
<!DOCTYPE svg PUBLIC "-//W3C//DTD SVG 20010904//EN"
 "http://www.w3.org/TR/2001/REC-SVG-20010904/DTD/svg10.dtd">
<svg version="1.0" xmlns="http://www.w3.org/2000/svg"
 width="2952.000000pt" height="464.000000pt" viewBox="0 0 2952.000000 464.000000"
 preserveAspectRatio="xMidYMid meet">

<g transform="translate(0.000000,464.000000) scale(0.100000,-0.100000)"
fill="#000000" stroke="none">
<path d="M10152 4495 c-42 -18 -65 -69 -52 -115 20 -69 69 -132 234 -295 161
-160 476 -451 666 -614 137 -118 279 -225 468 -352 l176 -119 -359 6 c-198 3
-365 7 -371 9 -6 2 -155 -1 -330 -5 -302 -9 -587 -28 -754 -50 l-75 -11 -35
39 c-19 21 -75 86 -123 145 -154 186 -366 357 -587 471 -314 162 -516 216
-1230 327 -366 57 -483 65 -537 36 -67 -36 -81 -114 -34 -189 38 -60 243 -246
406 -368 311 -234 596 -377 1015 -510 107 -34 197 -64 199 -66 9 -8 -7 -14
-129 -49 -393 -114 -1363 -337 -1390 -320 -5 3 -40 52 -77 108 -163 247 -279
392 -463 581 -476 488 -889 671 -1597 705 -195 10 -309 -1 -359 -34 -25 -16
-54 -70 -54 -100 0 -78 504 -619 870 -935 252 -218 310 -260 466 -338 82 -41
251 -104 314 -116 19 -4 73 -19 120 -33 l85 -26 -125 -29 c-603 -139 -1051
-209 -1360 -212 l-154 -1 -9 35 c-30 111 -162 493 -206 595 -174 402 -393 690
-756 993 -268 224 -560 401 -837 508 -100 39 -126 39 -186 2 -104 -64 -95
-206 44 -686 63 -216 115 -356 194 -517 177 -361 408 -619 769 -862 82 -55
110 -79 97 -81 -23 -5 -261 13 -446 34 -175 19 -385 57 -533 96 l-117 31 -29
96 c-16 53 -51 166 -76 251 -243 807 -616 1302 -1226 1624 -133 71 -207 96
-278 96 -77 0 -100 -15 -138 -89 -43 -82 -43 -145 -3 -344 87 -430 295 -847
578 -1159 56 -62 81 -103 69 -115 -3 -2 -40 2 -83 11 -72 15 -79 15 -113 -1
-28 -14 -38 -27 -45 -56 -15 -61 6 -80 222 -191 106 -54 192 -102 192 -106 0
-5 -35 -11 -78 -15 -471 -40 -913 -186 -1383 -455 -302 -173 -383 -237 -396
-313 -15 -97 47 -146 225 -178 299 -55 446 -62 697 -34 442 49 755 134 1203
326 320 138 452 213 575 327 l48 46 442 -78 c243 -43 444 -80 446 -82 9 -9
-19 -23 -164 -84 -274 -114 -474 -222 -710 -381 -378 -255 -813 -674 -855
-824 -29 -103 51 -195 169 -195 43 0 304 41 483 76 335 65 536 133 816 273
673 337 1139 651 1498 1009 l121 121 412 46 c227 26 415 45 418 41 11 -10 -21
-39 -180 -158 -394 -297 -610 -518 -960 -983 -82 -109 -159 -220 -170 -245
-12 -25 -21 -68 -21 -97 -1 -46 3 -56 32 -85 31 -32 35 -33 106 -31 63 1 112
14 367 98 417 138 622 216 795 301 320 157 622 388 859 654 223 251 335 438
401 670 43 153 33 143 186 180 211 50 472 105 758 160 146 27 279 53 295 56
l30 6 -25 -27 c-14 -15 -105 -90 -202 -166 -237 -186 -323 -264 -431 -388
-157 -182 -287 -402 -287 -486 0 -59 29 -106 85 -134 43 -23 51 -24 100 -14
141 30 530 210 790 365 309 185 485 318 660 499 123 127 188 210 323 410 l91
135 223 22 c437 43 948 67 1167 55 131 -7 131 -10 -4 -71 -369 -166 -743 -391
-1112 -669 -203 -152 -235 -187 -237 -253 -2 -79 58 -123 193 -142 70 -10 104
-10 224 6 489 61 938 198 1297 396 241 133 434 280 661 506 151 149 158 155
190 150 19 -3 129 -22 246 -41 341 -56 569 -108 792 -180 101 -33 111 -38 94
-50 -10 -7 -93 -39 -183 -70 -554 -193 -948 -404 -1335 -716 -173 -140 -292
-259 -304 -306 -14 -50 1 -105 36 -133 64 -50 175 -50 428 2 589 120 1098 295
1510 520 239 130 392 251 493 390 23 31 50 59 60 62 33 11 221 -62 398 -154
94 -48 194 -95 224 -104 113 -34 214 -14 360 70 47 27 173 85 279 129 188 77
194 79 208 60 163 -236 252 -307 633 -504 338 -175 638 -282 1145 -411 239
-61 301 -72 474 -90 127 -14 172 -7 216 32 41 35 52 81 34 135 -22 68 -265
286 -509 459 -325 230 -669 400 -1136 562 -94 33 -180 64 -189 70 -19 10 -6
15 220 81 198 58 555 132 795 165 63 9 127 18 141 21 24 4 47 -16 180 -149
290 -288 559 -473 919 -631 429 -189 1092 -321 1332 -267 71 16 113 55 123
111 12 74 -18 110 -235 275 -329 250 -615 426 -1000 615 -102 51 -196 101
-210 112 l-25 20 295 -6 c309 -6 582 -18 785 -35 138 -12 380 -38 412 -45 15
-4 58 -58 133 -168 226 -335 407 -516 735 -734 145 -97 232 -149 390 -236 226
-124 547 -261 638 -273 58 -7 124 27 155 81 37 64 27 104 -58 242 -120 193
-180 273 -275 368 -85 85 -372 336 -513 449 -35 28 -59 52 -54 54 30 10 783
-132 1037 -196 173 -43 159 -29 207 -197 60 -204 140 -346 315 -555 113 -136
315 -337 423 -424 354 -283 798 -491 1455 -681 204 -60 258 -65 305 -33 60 41
75 102 45 175 -29 69 -243 378 -357 513 -230 276 -521 545 -850 788 -87 64
-156 117 -155 119 3 2 847 -95 882 -102 12 -2 49 -41 85 -85 153 -194 304
-309 975 -737 327 -208 519 -308 798 -412 330 -124 808 -231 1029 -231 97 0
141 17 175 69 53 79 14 173 -146 347 -360 395 -875 756 -1367 959 -99 42 -208
95 -203 99 2 2 203 38 446 81 l441 78 69 -58 c96 -82 164 -124 353 -219 458
-229 944 -369 1500 -432 227 -26 435 -8 683 58 124 33 174 93 148 179 -17 57
-64 98 -213 187 -624 371 -883 470 -1424 546 -180 25 -214 32 -214 45 0 3 75
42 167 86 233 112 272 152 222 234 l-20 33 -72 -6 c-40 -4 -90 -10 -111 -13
-46 -7 -59 -29 104 182 233 304 349 510 439 780 86 260 132 546 102 636 -22
66 -49 87 -128 100 -66 11 -78 10 -142 -11 -81 -26 -265 -125 -395 -212 -388
-261 -655 -598 -834 -1054 -52 -133 -232 -648 -252 -723 -12 -47 -15 -49 -145
-86 -185 -54 -456 -100 -676 -115 -128 -8 -269 -4 -269 9 0 3 35 29 77 56 255
166 471 377 627 615 164 249 239 434 378 933 59 211 62 228 63 334 0 130 -10
153 -88 192 -47 23 -48 23 -110 6 -75 -20 -177 -71 -402 -200 -323 -185 -486
-307 -705 -525 -321 -320 -477 -585 -654 -1108 -53 -156 -101 -293 -107 -303
-8 -16 -21 -19 -73 -19 -359 0 -1235 146 -1471 246 l-40 17 120 33 c165 45
253 78 369 137 279 142 655 475 1101 972 224 250 240 279 195 353 -35 56 -95
77 -225 76 -128 -2 -351 -19 -515 -40 -477 -62 -872 -276 -1267 -687 -149
-155 -260 -295 -404 -509 -77 -115 -126 -178 -137 -178 -20 0 -823 189 -957
225 -49 13 -153 38 -230 55 -158 34 -331 88 -318 100 4 4 118 43 253 87 366
120 595 231 868 420 202 140 482 385 516 451 38 73 23 137 -41 179 -55 36
-236 18 -868 -88 -382 -64 -589 -122 -808 -227 -287 -137 -474 -284 -717 -561
-133 -151 -94 -138 -352 -116 -429 36 -814 45 -1128 25 -541 -33 -513 -33
-524 -5 -3 9 28 34 92 73 343 212 637 461 1284 1093 155 151 198 238 148 301
-48 62 -90 61 -390 -6 -709 -158 -1101 -365 -1403 -741 -161 -200 -268 -384
-397 -684 l-67 -154 -349 -83 c-508 -121 -475 -114 -466 -99 4 7 71 74 149
149 204 196 332 362 467 600 93 166 231 490 256 602 11 49 -2 103 -33 139
l-22 26 -83 -16 c-256 -49 -630 -226 -937 -443 -112 -80 -307 -278 -381 -387
-159 -234 -297 -554 -354 -820 -23 -103 -64 -223 -83 -241 -7 -6 -141 -78
-299 -158 l-288 -147 -297 154 -298 154 -23 64 c-13 35 -36 120 -52 189 -40
176 -88 308 -186 510 -119 244 -190 348 -343 500 -252 250 -583 446 -983 581
-121 41 -157 50 -204 47 -49 -3 -60 -7 -78 -31 -15 -20 -21 -42 -20 -75 2 -98
184 -521 319 -742 107 -177 221 -318 398 -493 93 -93 167 -170 166 -172 -2 -2
-186 41 -408 94 l-404 97 -26 55 c-256 552 -368 729 -598 949 -221 213 -452
343 -788 445 -192 59 -701 185 -742 185 -21 -1 -53 -7 -71 -15z m529 -239
c118 -30 275 -75 349 -100 176 -60 393 -168 500 -250 119 -89 264 -243 350
-372 89 -133 220 -395 220 -442 0 -41 -4 -40 -136 24 -376 183 -1079 695
-1446 1054 -65 63 -118 121 -118 128 0 22 65 13 281 -42z m8394 -74 c-318
-313 -805 -685 -1232 -941 -172 -103 -376 -206 -381 -193 -4 13 99 247 145
331 239 434 561 675 1111 831 176 50 394 99 442 99 l45 1 -130 -128z m9060
-249 c-92 -684 -505 -1263 -1130 -1583 -64 -33 -122 -60 -127 -60 -13 0 -4 38
49 210 162 526 352 875 632 1164 114 117 280 255 375 314 80 48 210 104 214
91 2 -5 -4 -66 -13 -136z m-26567 91 c139 -68 388 -273 538 -442 163 -185 276
-375 382 -642 93 -233 210 -565 217 -614 l8 -49 -109 57 c-629 333 -1003 829
-1143 1516 -11 52 -23 124 -27 159 l-7 64 34 -6 c19 -4 67 -23 107 -43z
m15528 -1 c-22 -96 -78 -244 -136 -361 -218 -441 -577 -814 -965 -1003 -99
-48 -247 -101 -320 -115 l-38 -7 7 59 c9 77 66 246 120 359 150 308 451 628
773 822 129 77 522 269 557 272 4 1 5 -11 2 -26z m-4446 -45 c525 -225 914
-551 1113 -936 76 -148 168 -376 177 -440 l7 -54 -50 6 c-28 4 -91 20 -141 36
-414 133 -904 592 -1140 1067 -59 117 -110 259 -121 337 -9 57 -19 58 155 -16z
m-9342 -62 c129 -65 379 -264 591 -471 371 -363 555 -660 744 -1210 36 -104
68 -198 72 -207 6 -15 2 -18 -26 -18 -46 0 -179 33 -263 65 -372 140 -668 399
-895 780 -144 242 -262 573 -346 970 -34 161 -34 157 13 141 21 -8 70 -30 110
-50z m23092 -78 c-103 -485 -227 -809 -419 -1094 -233 -346 -519 -569 -887
-689 -60 -20 -124 -37 -144 -38 -34 -2 -35 -1 -38 37 -13 152 192 661 376 934
187 280 549 635 852 837 91 61 251 145 276 145 8 0 4 -39 -16 -132z m-4340
-79 c0 -6 -40 -51 -89 -99 -339 -336 -1183 -670 -1785 -707 l-109 -6 19 29
c96 152 279 322 471 438 162 97 398 184 631 231 129 27 770 122 830 124 17 1
32 -4 32 -10z m-14155 -35 c527 -57 954 -191 1232 -387 149 -106 343 -314 343
-369 0 -29 -103 -23 -304 17 -412 82 -819 206 -1049 321 -232 116 -542 340
-587 425 l-12 22 118 -7 c66 -4 182 -14 259 -22z m-2476 -80 c487 -56 811
-213 1106 -534 169 -183 321 -384 405 -534 32 -57 33 -59 15 -73 -15 -10 -39
-12 -95 -8 -421 34 -722 129 -977 312 -188 134 -598 532 -854 827 l-34 39 155
-7 c85 -4 211 -14 279 -22z m19105 18 l39 -7 -128 -145 c-292 -329 -653 -656
-871 -786 -108 -65 -228 -117 -332 -144 -147 -39 -407 -81 -513 -83 l-104 -2
2 29 c7 100 318 502 552 714 203 184 392 286 652 352 70 18 348 64 444 73 71
7 219 6 259 -1z m-12751 -1073 l37 -10 -17 -31 c-37 -63 -281 -260 -465 -374
-188 -116 -334 -173 -872 -335 -340 -103 -396 -114 -396 -80 0 22 367 276 593
412 302 181 780 405 927 433 35 6 148 -2 193 -15z m6302 -10 c123 -38 512
-224 745 -357 207 -118 517 -320 629 -411 l44 -36 -29 -5 c-159 -29 -794 167
-1121 346 -239 130 -620 431 -587 464 32 32 213 32 319 -1z m2444 -118 c117
-36 485 -264 676 -418 115 -93 308 -288 378 -382 58 -78 101 -150 94 -157 -8
-8 -171 58 -283 114 -309 155 -611 369 -835 592 -131 130 -219 248 -196 262
22 14 104 8 166 -11z m-11304 -18 c-175 -271 -621 -619 -1080 -843 -77 -38
-163 -78 -192 -89 l-52 -20 20 47 c39 89 212 298 334 402 96 81 276 209 510
360 260 169 258 168 389 169 l88 1 -17 -27z m4533 -283 c28 -12 52 -26 52 -30
0 -17 -106 -123 -164 -164 -75 -54 -429 -237 -591 -307 -148 -63 -377 -141
-775 -265 -281 -87 -370 -107 -370 -86 0 12 195 156 360 267 404 271 793 461
1209 591 148 46 159 46 279 -6z m2352 -1 c349 -105 828 -333 1170 -556 159
-104 370 -272 370 -295 0 -17 -51 -5 -338 81 -515 156 -715 228 -967 351 -239
117 -525 311 -567 384 -9 15 121 73 167 75 17 0 91 -17 165 -40z m-9090 -216
c-117 -220 -236 -378 -412 -549 -332 -321 -862 -627 -1419 -819 -89 -30 -164
-53 -167 -51 -18 19 195 273 413 492 340 341 694 610 1120 853 162 92 262 132
395 156 134 24 129 29 70 -82z m15685 68 c103 -25 151 -46 315 -139 324 -182
596 -374 867 -609 146 -127 412 -395 524 -528 84 -100 161 -206 155 -213 -11
-10 -464 154 -621 226 -209 95 -453 247 -740 462 -286 214 -382 307 -503 489
-50 76 -172 304 -172 323 0 14 94 8 175 -11z m-20247 -18 l43 -8 -28 -37 c-64
-84 -343 -239 -603 -336 -549 -205 -1157 -294 -1399 -206 -17 6 73 68 266 184
382 229 751 363 1133 409 83 11 521 6 588 -6z m25368 -12 c395 -67 755 -215
1152 -473 67 -44 122 -84 122 -88 0 -4 -19 -16 -42 -26 -35 -16 -64 -19 -158
-17 -467 6 -1043 144 -1440 343 -176 89 -411 243 -394 259 3 3 49 11 102 18
148 18 508 10 658 -16z m-2607 -366 c182 -12 435 -77 676 -172 505 -200 966
-525 1235 -872 l34 -44 -94 6 c-124 9 -241 36 -421 97 -549 185 -1226 574
-1553 890 -97 94 -98 95 -70 101 16 3 47 5 69 3 22 -2 78 -6 124 -9z m-20625
-3 c5 -9 -142 -129 -324 -264 -437 -324 -858 -554 -1270 -696 -173 -59 -542
-150 -571 -140 -31 10 159 218 329 360 485 407 1035 677 1502 737 86 11 327
13 334 3z"/>
</g>
</svg>
